<svg version="1.2" xmlns="http://www.w3.org/2000/svg" viewBox="0 0 347 420" width="347" height="420">
	<title>player-bg-svg</title>
	<style>
		.s0 { fill: #69995d } 
		.s1 { fill: #2c4d24 } 
	</style>
	<path id="Layer" class="s0" d="m36.1 78.3c1.6 7.2 8 36.2 10.7 69.4v0.5c0 0.5 0.1 3 0.2 4.3 0.7 14.7 1.2 27.4 0.7 35.3v0.9c-0.5 11.3-1.6 38.9-2.9 52.3l-0.1 0.8q-0.1 1.3-0.3 2.7v0.3c-0.9 8.4-2.3 21.2-0.8 34.8 1.8 15.5 7.1 29.2 15.7 40.9 25.9 34.9 77.6 48.9 79.8 49.5 15.5 4.1 30.3 11.1 34.2 13.1 3.9-2 18.7-9 34.2-13.1 2.2-0.5 53.9-14.6 79.8-49.5 8.7-11.6 13.9-25.4 15.7-40.9 1.5-13.7 0.1-26.4-0.8-34.8v-0.3q-0.2-1.9-0.4-3.5c-1.3-13.4-2.4-41-2.8-52.3l-0.1-0.9c-0.5-8.1 0-21.3 0.7-35.2l0.3-4.8c2.6-33.3 9-62.2 10.7-69.4l-137.3-42.8z"/>
	<path id="Layer" fill-rule="evenodd" class="s1" d="m339 50.6l7.7 2.4-1.9 7.7-2.4 9.6c-0.1 0.4-8.3 33.9-11.4 73.2q-0.1 2-0.2 4.5c-0.6 11-1.4 27.6-0.8 35.7v0.1 0.4 0.2c0.1 1.6 1.4 39.3 3 55.7q0.2 1.7 0.4 3.7v0.1c1.1 10 2.8 25.2 0.9 42-2.4 20.4-9.4 38.6-20.9 54.2-31.8 42.8-91 59.4-97.6 61.2-15.6 4.1-30.7 11.4-32.6 12.4l-2.4 1.4-2.1 1.2-5.4 2.9-5.3-2.9-2.1-1.2-2.4-1.4c-1.9-1-16.9-8.3-32.6-12.4-6.6-1.7-65.8-18.4-97.6-61.2-11.5-15.6-18.6-33.8-20.9-54.2-1.9-16.8-0.2-32 0.9-42v-0.1q0.2-2 0.4-3.7c1.6-16.4 2.9-54.1 3-55.7v-0.2-0.4-0.1c0.6-8.1-0.2-24.7-0.8-35.7q-0.1-2.5-0.2-4.5c-3.1-39.3-11.3-72.8-11.4-73.2l-2.4-9.6-1.9-7.7 7.7-2.4 161.1-50.2 1.3-0.4h6.4l1.3 0.4 161.1 50.2zm-20.4 27.9l1.3-5.4-145.5-45.4h-2.1l-145.6 45.3 1.4 5.6c0.3 1.3 8 32.8 10.9 69.6v0.3c0 0 0.1 2.9 0.2 4.4 0.7 14.5 1.2 27 0.7 34.5v1c-0.5 11.2-1.6 38.6-2.9 51.8l-0.1 0.9q-0.1 1.2-0.2 2.5l-0.1 0.3c-0.9 8.8-2.3 22.1-0.7 36.5 1.9 16.9 7.7 32 17.2 44.8 27.4 37 81.7 51.8 84 52.4 14.6 3.8 28.8 10.5 32.4 12.3l3.8 2.2 3.2-1.8c2.3-1.3 17.3-8.5 33.1-12.7 2.3-0.6 56.5-15.4 84-52.4 9.5-12.8 15.3-27.8 17.2-44.8 1.6-14.4 0.1-28-0.8-36.2v-0.4q-0.2-1.9-0.4-3.5c-1.3-13.3-2.4-40.7-2.8-51.9v-1c-0.6-7.7 0-21.2 0.7-34.4l0.2-4.5v-0.3c2.9-36.9 10.6-68.4 10.9-69.7z"/>
</svg>